<svg width="72" height="72" viewBox="0 0 72 72" fill="none" xmlns="http://www.w3.org/2000/svg">
<path d="M10.8089 61.1387V52.819H14.3216C14.4025 52.819 14.5103 52.8228 14.6452 52.8305C14.7838 52.8344 14.9071 52.846 15.0149 52.8652C15.5118 52.9422 15.9181 53.1059 16.234 53.3563C16.5537 53.6067 16.7886 53.9225 16.9388 54.3038C17.0891 54.6813 17.1642 55.1031 17.1642 55.5691C17.1642 56.0352 17.0871 56.4589 16.9331 56.8402C16.7829 57.2176 16.5479 57.5316 16.2282 57.7819C15.9124 58.0323 15.5079 58.196 15.0149 58.273C14.9071 58.2884 14.7838 58.3 14.6452 58.3077C14.5065 58.3154 14.3986 58.3192 14.3216 58.3192H12.3804V61.1387H10.8089ZM12.3804 56.8517H14.2523C14.3332 56.8517 14.4218 56.8479 14.518 56.8402C14.6143 56.8325 14.7029 56.8171 14.7838 56.7939C14.9957 56.7362 15.1594 56.6399 15.2749 56.5051C15.3905 56.3664 15.4694 56.2143 15.5118 56.0486C15.558 55.8792 15.5811 55.7193 15.5811 55.5691C15.5811 55.4189 15.558 55.261 15.5118 55.0953C15.4694 54.9259 15.3905 54.7737 15.2749 54.6389C15.1594 54.5003 14.9957 54.402 14.7838 54.3443C14.7029 54.3212 14.6143 54.3057 14.518 54.298C14.4218 54.2903 14.3332 54.2865 14.2523 54.2865H12.3804V56.8517ZM17.5176 61.1387L20.0597 52.819H22.4054L24.9475 61.1387H23.3298L21.065 53.8012H21.3654L19.1353 61.1387H17.5176ZM19.0429 59.4054V57.9379H23.4338V59.4054H19.0429ZM29.6746 61.312C28.8426 61.312 28.1243 61.131 27.5195 60.7689C26.9187 60.4068 26.4545 59.9003 26.1271 59.2494C25.8036 58.5985 25.6418 57.8416 25.6418 56.9788C25.6418 56.1161 25.8036 55.3592 26.1271 54.7083C26.4545 54.0573 26.9187 53.5508 27.5195 53.1888C28.1243 52.8267 28.8426 52.6457 29.6746 52.6457C30.6298 52.6457 31.4309 52.8825 32.078 53.3563C32.729 53.8301 33.1873 54.4714 33.4531 55.2802L31.87 55.7193C31.716 55.2148 31.456 54.8238 31.0901 54.5465C30.7242 54.2653 30.2523 54.1247 29.6746 54.1247C29.1469 54.1247 28.7059 54.2422 28.3515 54.4772C28.001 54.7121 27.7372 55.0434 27.56 55.4709C27.3828 55.8984 27.2942 56.4011 27.2942 56.9788C27.2942 57.5566 27.3828 58.0592 27.56 58.4868C27.7372 58.9143 28.001 59.2456 28.3515 59.4805C28.7059 59.7155 29.1469 59.8329 29.6746 59.8329C30.2523 59.8329 30.7242 59.6924 31.0901 59.4112C31.456 59.13 31.716 58.7391 31.87 58.2383L33.4531 58.6774C33.1873 59.4863 32.729 60.1276 32.078 60.6014C31.4309 61.0751 30.6298 61.312 29.6746 61.312ZM35.0719 61.1387V52.819H40.5028V54.2865H36.6434V56.066H39.8095V57.5335H36.6434V59.6712H40.5028V61.1387H35.0719ZM44.8942 61.1387V52.819H46.3039L49.054 58.3423L51.8041 52.819H53.2139V61.1387H51.7464V56.17L49.3313 61.1387H48.7767L46.3617 56.17V61.1387H44.8942ZM55.1823 61.1387V52.819H60.6132V54.2865H56.7538V56.066H59.9199V57.5335H56.7538V59.6712H60.6132V61.1387H55.1823Z" fill="#5D63D1"/>
<path d="M32.2168 14.7988L38.5898 14.8525L39.7881 15.2881C43.9762 16.8114 46.7587 21.1689 46.1875 25.3096C45.4745 30.4793 41.1987 33.965 35.7559 33.8145L34.1006 33.7695V31.3643L36.0244 31.2656C37.0819 31.2115 38.1635 31.1106 38.4287 31.042C40.0858 30.6121 42.1804 28.9124 42.8477 27.4561C43.0346 27.0482 43.2717 26.5407 43.374 26.3291C43.4812 26.1066 43.5557 25.2241 43.5508 24.2451C43.5426 22.6525 43.5088 22.4751 43.0029 21.4297C42.1147 19.5937 40.8309 18.4107 38.9102 17.6582C37.9951 17.2997 37.7157 17.2786 33.1787 17.2109L28.4082 17.1396V38.8193H30.1699L30.2109 28.7588L30.252 18.6973L33.6191 18.6504C36.3637 18.6126 37.1641 18.6528 37.9482 18.8691C39.7904 19.3771 40.9261 20.3363 41.7324 22.0645C42.0375 22.7182 42.1063 23.1326 42.1055 24.3096C42.1047 25.5709 42.0481 25.8631 41.6562 26.6338C41.1148 27.699 40.8697 28.0041 40.0205 28.6699C38.7696 29.6504 37.9887 29.8408 35.2188 29.8408H32.7412L32.6992 35.4932L32.6572 41.1445L29.25 41.1875L25.8428 41.2314V14.7461L32.2168 14.7988ZM32.7979 21.2148V27.4678H34.7734C37.0945 27.4678 37.9401 27.2424 38.7852 26.3975C40.0033 25.1794 39.894 23.107 38.5508 21.957C37.7608 21.2809 37.4323 21.2148 34.8623 21.2148H32.7979Z" fill="#5D63D1"/>
<path opacity="0.6" d="M44.7461 13.5962C43.0529 12.3956 41.5722 11.7622 39.282 11.2586C38.9293 11.181 34.7983 11.1144 30.1021 11.1106L21.5635 11.1035L21.6044 26.2159L21.6452 41.3282H22.8478H24.0503L24.0913 27.4184L24.1322 13.5087H31.0439C37.4706 13.5087 38.0513 13.5318 39.32 13.8385C43.4477 14.8365 46.5867 17.9208 47.6052 21.9798C47.9528 23.3648 47.9295 25.6463 47.553 27.0958C47.2628 28.2129 46.3153 30.2972 45.8971 30.7379C45.7862 30.8549 45.5511 31.1501 45.3747 31.3938C44.9659 31.9591 43.2088 33.3783 42.168 33.9835C40.577 34.9092 39.3463 35.2076 36.7167 35.3057L34.3117 35.3955V36.5981V37.8007L35.8348 37.8515C37.3806 37.9033 40.7348 37.483 40.8992 37.2172C40.9461 37.1412 41.1172 37.0791 41.2793 37.0791C41.9676 37.0791 44.4486 35.6221 45.8557 34.3915C48.4083 32.159 49.9069 29.3828 50.2908 26.1758C50.391 25.338 50.4739 24.5443 50.4748 24.412C50.4804 23.6117 50.0568 21.136 49.7748 20.3217C49.4296 19.3248 48.8315 17.9774 48.6723 17.8379C48.6221 17.7938 48.4729 17.5469 48.3406 17.2891C47.9678 16.5618 45.828 14.3635 44.7461 13.5962Z" fill="#5D63D1"/>
</svg>
